<mxfile host="65bd71144e">
    <diagram id="informed-consent-management" name="知情同意书管理活动图">
        <mxGraphModel dx="1166" dy="706" grid="1" gridSize="10" guides="1" tooltips="1" connect="1" arrows="1" fold="1" page="1" pageScale="1" pageWidth="827" pageHeight="1169" math="0" shadow="0">
            <root>
                <mxCell id="0"/>
                <mxCell id="1" parent="0"/>
                
                <!-- 开始节点 -->
                <mxCell id="start" value="" style="ellipse;fillColor=#000000;strokeColor=none;html=1;" vertex="1" parent="1">
                    <mxGeometry x="384" y="40" width="30" height="30" as="geometry"/>
                </mxCell>
                
                <!-- 活动节点 -->
                <mxCell id="act1" value="选择样本信息" style="rounded=1;whiteSpace=wrap;html=1;" vertex="1" parent="1">
                    <mxGeometry x="339" y="110" width="120" height="60" as="geometry"/>
                </mxCell>
                
                <mxCell id="act2" value="扫描知情同意书" style="rounded=1;whiteSpace=wrap;html=1;" vertex="1" parent="1">
                    <mxGeometry x="339" y="210" width="120" height="60" as="geometry"/>
                </mxCell>
                
                <mxCell id="act3" value="上传电子文档" style="rounded=1;whiteSpace=wrap;html=1;" vertex="1" parent="1">
                    <mxGeometry x="339" y="310" width="120" height="60" as="geometry"/>
                </mxCell>
                
                <mxCell id="decision1" value="文档是否&#10;符合要求？" style="rhombus;whiteSpace=wrap;html=1;" vertex="1" parent="1">
                    <mxGeometry x="334" y="410" width="130" height="80" as="geometry"/>
                </mxCell>
                
                <mxCell id="act4" value="填写文档说明" style="rounded=1;whiteSpace=wrap;html=1;" vertex="1" parent="1">
                    <mxGeometry x="339" y="530" width="120" height="60" as="geometry"/>
                </mxCell>
                
                <mxCell id="act5" value="关联样本信息" style="rounded=1;whiteSpace=wrap;html=1;" vertex="1" parent="1">
                    <mxGeometry x="339" y="630" width="120" height="60" as="geometry"/>
                </mxCell>
                
                <mxCell id="act6" value="保存管理记录" style="rounded=1;whiteSpace=wrap;html=1;" vertex="1" parent="1">
                    <mxGeometry x="339" y="730" width="120" height="60" as="geometry"/>
                </mxCell>
                
                <!-- 结束节点 -->
                <mxCell id="end" value="" style="ellipse;html=1;shape=endState;fillColor=#000000;strokeColor=#000000;" vertex="1" parent="1">
                    <mxGeometry x="384" y="830" width="30" height="30" as="geometry"/>
                </mxCell>
                
                <!-- 连接线 -->
                <mxCell id="flow1" value="" style="endArrow=classic;html=1;rounded=0;exitX=0.5;exitY=1;exitDx=0;exitDy=0;entryX=0.5;entryY=0;entryDx=0;entryDy=0;" edge="1" parent="1" source="start" target="act1">
                    <mxGeometry width="50" height="50" relative="1" as="geometry"/>
                </mxCell>
                
                <mxCell id="flow2" value="" style="endArrow=classic;html=1;rounded=0;exitX=0.5;exitY=1;exitDx=0;exitDy=0;entryX=0.5;entryY=0;entryDx=0;entryDy=0;" edge="1" parent="1" source="act1" target="act2">
                    <mxGeometry width="50" height="50" relative="1" as="geometry"/>
                </mxCell>
                
                <mxCell id="flow3" value="" style="endArrow=classic;html=1;rounded=0;exitX=0.5;exitY=1;exitDx=0;exitDy=0;entryX=0.5;entryY=0;entryDx=0;entryDy=0;" edge="1" parent="1" source="act2" target="act3">
                    <mxGeometry width="50" height="50" relative="1" as="geometry"/>
                </mxCell>
                
                <mxCell id="flow4" value="" style="endArrow=classic;html=1;rounded=0;exitX=0.5;exitY=1;exitDx=0;exitDy=0;entryX=0.5;entryY=0;entryDx=0;entryDy=0;" edge="1" parent="1" source="act3" target="decision1">
                    <mxGeometry width="50" height="50" relative="1" as="geometry"/>
                </mxCell>
                
                <mxCell id="flow5" value="是" style="endArrow=classic;html=1;rounded=0;exitX=0.5;exitY=1;exitDx=0;exitDy=0;entryX=0.5;entryY=0;entryDx=0;entryDy=0;" edge="1" parent="1" source="decision1" target="act4">
                    <mxGeometry relative="1" as="geometry"/>
                </mxCell>
                
                <mxCell id="flow6" value="否" style="endArrow=classic;html=1;rounded=0;exitX=0;exitY=0.5;exitDx=0;exitDy=0;entryX=0;entryY=0.5;entryDx=0;entryDy=0;" edge="1" parent="1" source="decision1" target="act2">
                    <mxGeometry relative="1" as="geometry">
                        <Array as="points">
                            <mxPoint x="280" y="450"/>
                            <mxPoint x="280" y="240"/>
                        </Array>
                    </mxGeometry>
                </mxCell>
                
                <mxCell id="flow7" value="" style="endArrow=classic;html=1;rounded=0;exitX=0.5;exitY=1;exitDx=0;exitDy=0;entryX=0.5;entryY=0;entryDx=0;entryDy=0;" edge="1" parent="1" source="act4" target="act5">
                    <mxGeometry width="50" height="50" relative="1" as="geometry"/>
                </mxCell>
                
                <mxCell id="flow8" value="" style="endArrow=classic;html=1;rounded=0;exitX=0.5;exitY=1;exitDx=0;exitDy=0;entryX=0.5;entryY=0;entryDx=0;entryDy=0;" edge="1" parent="1" source="act5" target="act6">
                    <mxGeometry width="50" height="50" relative="1" as="geometry"/>
                </mxCell>
                
                <mxCell id="flow9" value="" style="endArrow=classic;html=1;rounded=0;exitX=0.5;exitY=1;exitDx=0;exitDy=0;entryX=0.5;entryY=0;entryDx=0;entryDy=0;" edge="1" parent="1" source="act6" target="end">
                    <mxGeometry width="50" height="50" relative="1" as="geometry"/>
                </mxCell>
                
                <!-- 注释 -->
                <mxCell id="note1" value="支持统一管理知情同意书" style="shape=note;size=15;align=left;spacingLeft=5;html=1;whiteSpace=wrap;" vertex="1" parent="1">
                    <mxGeometry x="600" y="730" width="120" height="60" as="geometry"/>
                </mxCell>
                
                <!-- 注释连接线 -->
                <mxCell id="note1_line" value="" style="endArrow=none;dashed=1;html=1;rounded=0;exitX=1;exitY=0.5;exitDx=0;exitDy=0;entryX=0;entryY=0.5;entryDx=0;entryDy=0;entryPerimeter=0;" edge="1" parent="1" source="act6" target="note1">
                    <mxGeometry width="50" height="50" relative="1" as="geometry"/>
                </mxCell>
            </root>
        </mxGraphModel>
    </diagram>
</mxfile>